HIERARCHY
ROOT Hips
{
 OFFSET 0.000000 0.000000 0.000000
 CHANNELS 6 Xposition Yposition Zposition Yrotation Xrotation Zrotation
 JOINT Chest
 {
  OFFSET 0.000000 13.173100 -0.061900
  CHANNELS 3 Yrotation Xrotation Zrotation
  JOINT Chest2
  {
   OFFSET 0.000000 8.040800 0.126200
   CHANNELS 3 Yrotation Xrotation Zrotation
   JOINT Chest3
   {
    OFFSET 0.000000 7.994400 0.000000
    CHANNELS 3 Yrotation Xrotation Zrotation
    JOINT Chest4
    {
     OFFSET 0.000000 7.986200 0.000000
     CHANNELS 3 Yrotation Xrotation Zrotation
     JOINT Neck
     {
      OFFSET 0.000000 12.259400 0.000000
      CHANNELS 3 Yrotation Xrotation Zrotation
      JOINT Head
      {
       OFFSET 0.000000 7.518700 0.267100
       CHANNELS 3 Yrotation Xrotation Zrotation
       End Site
       {
        OFFSET 0.000000 13.617700 0.141000
       }
      }
     }
     JOINT RightCollar
     {
      OFFSET -2.983800 8.314300 0.000000
      CHANNELS 3 Yrotation Xrotation Zrotation
      JOINT RightShoulder
      {
       OFFSET -16.133400 0.000000 0.000000
       CHANNELS 3 Yrotation Xrotation Zrotation
       JOINT RightElbow
       {
        OFFSET 0.000000 -29.822100 0.000000
        CHANNELS 3 Yrotation Xrotation Zrotation
        JOINT RightWrist
        {
         OFFSET 0.000000 -24.437700 0.010900
         CHANNELS 3 Yrotation Xrotation Zrotation
         End Site
         {
          OFFSET 0.000000 -18.312300 0.000000
         }
        }
       }
      }
     }
     JOINT LeftCollar
     {
      OFFSET 2.983800 8.314300 0.000000
      CHANNELS 3 Yrotation Xrotation Zrotation
      JOINT LeftShoulder
      {
       OFFSET 16.133400 0.000000 0.000000
       CHANNELS 3 Yrotation Xrotation Zrotation
       JOINT LeftElbow
       {
        OFFSET 0.000000 -29.822100 0.000000
        CHANNELS 3 Yrotation Xrotation Zrotation
        JOINT LeftWrist
        {
         OFFSET 0.000000 -24.437700 0.010900
         CHANNELS 3 Yrotation Xrotation Zrotation
         End Site
         {
          OFFSET 0.000000 -18.312300 0.000000
         }
        }
       }
      }
     }
    }
   }
  }
 }
 JOINT RightHip
 {
  OFFSET -11.206700 0.306200 0.030900
  CHANNELS 3 Yrotation Xrotation Zrotation
  JOINT RightKnee
  {
   OFFSET 0.000000 -57.334900 0.009400
   CHANNELS 3 Yrotation Xrotation Zrotation
   JOINT RightAnkle
   {
    OFFSET 0.000000 -43.376200 0.036600
    CHANNELS 3 Yrotation Xrotation Zrotation
    JOINT RightToe
    {
     OFFSET 0.000000 -10.035500 18.363100
     CHANNELS 3 Yrotation Xrotation Zrotation
     End Site
     {
      OFFSET 0.000000 -1.618500 7.239000
     }
    }
   }
  }
 }
 JOINT LeftHip
 {
  OFFSET 11.206700 0.306200 0.030900
  CHANNELS 3 Yrotation Xrotation Zrotation
  JOINT LeftKnee
  {
   OFFSET 0.000000 -57.334900 0.009400
   CHANNELS 3 Yrotation Xrotation Zrotation
   JOINT LeftAnkle
   {
    OFFSET 0.000000 -43.376200 0.036600
    CHANNELS 3 Yrotation Xrotation Zrotation
    JOINT LeftToe
    {
     OFFSET 0.000000 -10.035500 18.363100
     CHANNELS 3 Yrotation Xrotation Zrotation
     End Site
     {
      OFFSET 0.000000 -1.618500 7.239000
     }
    }
   }
  }
 }
}
MOTION
Frames: 6
Frame Time: 0.008333
0.000000 110.232800 0.000000 0.000000 -5.767877 0.000000 0.000000 11.653817 0.000000 0.000000 -5.885947 0.000000 0.000000 -0.000000 0.000000 0.000000 -0.000000 0.000000 0.000000 12.528835 0.000000 0.000000 0.711642 0.000000 0.000000 -0.000000 0.000000 0.000000 0.000000 -90.000000 0.000000 -2.309062 0.000000 0.000000 2.309062 0.000000 0.000000 -0.000000 0.000000 0.000000 -0.000000 90.000000 0.000000 -2.309062 0.000000 0.000000 2.309062 0.000000 0.000000 8.520406 0.000000 0.000000 1.905762 0.000000 -0.000000 -4.658285 0.000000 0.000000 -0.000000 0.000000 0.000000 8.520406 0.000000 0.000000 1.905762 0.000000 -0.000000 -4.658285 0.000000 0.000000 -0.000000 0.000000
-94.836210 64.298629 93.364038 173.875928 -39.680153 -2.876275 4.856178 24.631486 3.089744 0.608283 3.942632 0.500067 1.155447 6.342964 0.790443 3.999670 20.420740 3.158789 -0.456200 14.960068 0.560768 -1.063287 -8.006264 1.219735 -4.322325 0.439844 -2.573275 3.621072 -17.560863 -9.834102 -175.850567 -42.030276 -165.705107 -1.022530 -15.027522 -15.266847 -7.676975 1.635277 -0.035246 -6.380197 -23.761182 11.375755 161.581009 -50.123459 174.621908 -4.627950 -21.980520 23.521724 -4.403207 -41.256788 3.091023 -150.112778 86.096803 -145.712997 -0.671541 -11.222235 -2.130200 0.202105 -0.409568 0.112640 -1.385339 -38.246265 4.039027 65.171739 84.313665 54.600033 -4.889803 -12.425573 10.311083 0.256290 0.884101 0.145951
-94.835753 64.296372 93.357146 173.868509 -39.671756 -2.851815 4.882801 24.629879 3.076049 0.693323 3.963751 0.485272 1.104262 6.327455 0.802569 4.057213 20.422803 3.143004 -0.475779 15.038394 0.592181 -1.110525 -7.860061 1.284858 -4.338679 0.516995 -2.542676 4.047193 -17.543626 -9.855565 -175.876198 -41.798825 -165.616886 -1.002171 -15.302469 -15.606199 -7.766621 1.758714 -0.020410 -6.853900 -23.842006 11.617496 162.006618 -50.042969 174.194880 -4.767201 -22.079672 23.308702 -4.381558 -41.270239 3.066414 -150.336404 86.088704 -145.932425 -0.681581 -11.230441 -2.138918 0.210409 -0.416853 0.117197 -1.339789 -38.255458 3.994343 65.259925 84.304881 54.707648 -4.886214 -12.434859 10.313104 0.246511 0.886772 0.139966
-94.836463 64.293977 93.347436 173.871340 -39.664057 -2.821185 4.896012 24.630242 3.048833 0.681786 3.960691 0.486501 1.107826 6.327823 0.801573 4.132361 20.428746 3.109861 -0.490422 15.115500 0.618283 -1.146361 -7.716204 1.338149 -4.353463 0.594813 -2.511494 4.472666 -17.541904 -9.863135 -176.015918 -41.586312 -165.439457 -0.939683 -15.592729 -15.884222 -7.852076 1.880234 -0.003388 -7.259301 -23.913096 11.817034 162.490372 -49.918265 173.718124 -4.904995 -22.196644 23.083456 -4.356365 -41.281657 3.022320 -150.799892 86.082027 -146.391502 -0.699900 -11.252743 -2.146454 0.213872 -0.416264 0.120069 -1.294288 -38.261892 3.940088 65.335698 84.297851 54.797611 -4.897752 -12.444743 10.316657 0.245284 0.891263 0.138369
-94.836915 64.288841 93.338372 173.868326 -39.639228 -2.781231 4.987501 24.629115 3.031144 0.642088 3.947218 0.495144 1.119050 6.326841 0.796795 4.148925 20.417045 3.089345 -0.506114 15.174243 0.654407 -1.158214 -7.552731 1.365496 -4.362040 0.677677 -2.474676 4.887978 -17.559125 -9.861968 -176.244911 -41.392584 -165.189380 -0.832948 -15.888313 -16.097831 -7.930205 2.000005 0.012316 -7.607589 -23.979486 11.985991 162.982779 -49.755237 173.237024 -5.046615 -22.330491 22.859016 -4.318569 -41.316697 2.973348 -151.079621 86.062655 -146.668113 -0.704831 -11.269300 -2.148791 0.215898 -0.419735 0.122510 -1.237810 -38.280952 3.883367 65.585660 84.263505 55.055684 -4.954071 -12.472054 10.325964 0.250954 0.911350 0.139627
-94.830957 64.283779 93.327819 173.866129 -39.614503 -2.761560 5.003985 24.610957 3.013451 0.714869 3.958290 0.469623 1.088095 6.316121 0.809303 4.133014 20.405179 3.097134 -0.516011 15.194717 0.678557 -1.138003 -7.346170 1.351260 -4.340840 0.762186 -2.467537 5.290467 -17.594751 -9.860728 -176.529097 -41.221830 -164.894375 -0.695576 -16.184149 -16.236193 -7.975677 2.110803 -0.013480 -7.910690 -24.044701 12.133048 163.442292 -49.560846 172.788677 -5.187640 -22.476878 22.645627 -4.294470 -41.349752 2.953268 -151.193893 86.039837 -146.774400 -0.705409 -11.272857 -2.154424 0.217657 -0.432085 0.125933 -1.215482 -38.303687 3.861120 65.714568 84.260156 55.187408 -4.962632 -12.494704 10.327548 0.246707 0.922051 0.139346
